# xmcd
#
# Track frame offsets: 
#        150
#        23750
#        42082
#        73427
#        105427
#        122970
#        135497
#        155070
#        183690
#
# Disc length: 2565 seconds
#
# Revision: 14
# Processed by: cddbd v1.5.2PL0 Copyright (c) Steve Scherf et al.
# Submitted via: ExactAudioCopy v1.0b3
#
DISCID=7f0a0309
DTITLE=Yellow Magic Orchestra - Public Pressure
DYEAR=1979
DGENRE=Techno
TTITLE0=Rydeen
TTITLE1=Solid State Survivor
TTITLE2=Tong Poo
TTITLE3=The End Og Asia
TTITLE4=Cosmic Surfin
TTITLE5=Day Tripper
TTITLE6=Radio Junk
TTITLE7=La Femme Chinoise
TTITLE8=Back In Tokyo
EXTD=YEAR: 1979
EXTT0=
EXTT1=
EXTT2=
EXTT3=
EXTT4=
EXTT5=
EXTT6=
EXTT7=
EXTT8=
PLAYORDER=
